<svg width="24" height="24" viewBox="0 0 24 24" fill="none" xmlns="http://www.w3.org/2000/svg">
<path fill-rule="evenodd" clip-rule="evenodd" d="M2.75 2C2.33579 2 2 2.33579 2 2.75C2 3.16421 2.33579 3.5 2.75 3.5H4.66442L5.02239 4.9319L6.80064 12.0449C5.77331 12.2531 5 13.1612 5 14.25C5 15.4926 6.00736 16.5 7.25 16.5H18.75C19.1642 16.5 19.5 16.1642 19.5 15.75C19.5 15.3358 19.1642 15 18.75 15H7.25C6.83579 15 6.5 14.6642 6.5 14.25C6.5 13.8358 6.83579 13.5 7.25 13.5H7.75H18.75C19.0942 13.5 19.3941 13.2658 19.4776 12.9319L21.4776 4.9319C21.5336 4.70785 21.4833 4.47048 21.3412 4.28844C21.199 4.1064 20.981 4 20.75 4H6.33558L5.97761 2.5681C5.89414 2.23422 5.59415 2 5.25 2H2.75ZM7.75 18C6.7835 18 6 18.7835 6 19.75C6 20.7165 6.7835 21.5 7.75 21.5C8.7165 21.5 9.5 20.7165 9.5 19.75C9.5 18.7835 8.7165 18 7.75 18ZM17.75 18C16.7835 18 16 18.7835 16 19.75C16 20.7165 16.7835 21.5 17.75 21.5C18.7165 21.5 19.5 20.7165 19.5 19.75C19.5 18.7835 18.7165 18 17.75 18Z" fill="#CBE4DE"/>
</svg>
