<svg width="24" height="24" viewBox="0 0 24 24" fill="none" xmlns="http://www.w3.org/2000/svg">
<path d="M15.5303 14.4697C15.2374 14.1768 14.7626 14.1768 14.4697 14.4697C14.1768 14.7626 14.1768 15.2374 14.4697 15.5303L15.5303 14.4697ZM20.4697 21.5303C20.7626 21.8232 21.2374 21.8232 21.5303 21.5303C21.8232 21.2374 21.8232 20.7626 21.5303 20.4697L20.4697 21.5303ZM3.75 10C3.75 6.54822 6.54822 3.75 10 3.75V2.25C5.71979 2.25 2.25 5.71979 2.25 10H3.75ZM10 3.75C13.4518 3.75 16.25 6.54822 16.25 10H17.75C17.75 5.71979 14.2802 2.25 10 2.25V3.75ZM16.25 10C16.25 13.4518 13.4518 16.25 10 16.25V17.75C14.2802 17.75 17.75 14.2802 17.75 10H16.25ZM10 16.25C6.54822 16.25 3.75 13.4518 3.75 10H2.25C2.25 14.2802 5.71979 17.75 10 17.75V16.25ZM14.4697 15.5303L20.4697 21.5303L21.5303 20.4697L15.5303 14.4697L14.4697 15.5303ZM21.5303 20.4697L15.5303 14.4697L14.4697 15.5303L20.4697 21.5303L21.5303 20.4697Z" fill="#0E8388"/>
</svg>
